<svg width="117" height="27" viewBox="0 0 117 27" fill="none" xmlns="http://www.w3.org/2000/svg">
<g clipPath="url(#clip0_1082_5368)">
<path d="M40.3083 24.8455C39.1201 24.8455 38.0692 24.6269 37.1524 24.1898C36.2356 23.7526 35.5184 23.1468 35.0038 22.3755C34.4893 21.6011 34.2305 20.7112 34.2305 19.7026C34.2305 18.694 34.4425 17.8696 34.8697 17.0983C35.2939 16.3239 35.9487 15.6682 36.8344 15.1311C37.7169 14.594 38.8333 14.2131 40.1742 13.9882L46.8569 12.8797V15.5027L40.8789 16.5456C39.7158 16.7486 38.8707 17.1108 38.3437 17.6386C37.8167 18.1663 37.5547 18.822 37.5547 19.6058C37.5547 20.3459 37.851 20.961 38.4435 21.4544C39.036 21.9478 39.7813 22.1944 40.6762 22.1944C41.8176 22.1944 42.8092 21.954 43.6481 21.47C44.487 20.9891 45.1418 20.3334 45.6127 19.5028C46.0836 18.6753 46.3175 17.7666 46.3175 16.7798V12.1397C46.3175 11.1529 45.9588 10.3535 45.2416 9.73525C44.5244 9.1201 43.5733 8.81096 42.3883 8.81096C41.3592 8.81096 40.4455 9.07951 39.6534 9.61659C38.8582 10.1537 38.2719 10.85 37.8915 11.7025L35.1722 10.2911C35.509 9.46046 36.0454 8.71728 36.7845 8.05529C37.5235 7.3933 38.3842 6.87183 39.3696 6.49087C40.355 6.10991 41.3841 5.91943 42.46 5.91943C43.8477 5.91943 45.067 6.18173 46.121 6.70945C47.1719 7.23717 47.9952 7.97098 48.5877 8.91089C49.1802 9.85079 49.4764 10.9281 49.4764 12.1397V24.4458H46.4204V21.0172L46.991 21.2514C46.6106 21.9478 46.0898 22.5692 45.4287 23.1187C44.7676 23.6683 44.0067 24.093 43.146 24.3959C42.2853 24.6988 41.3373 24.8486 40.3083 24.8486V24.8455Z" fill="#D9D9D9"/>
<path d="M60.5406 21.7544C60.3036 21.7762 60.1072 21.7887 59.9513 21.7887C59.2122 21.7887 58.6197 21.6576 58.1738 21.4015C57.7247 21.1424 57.4066 20.7895 57.2164 20.343C57.0262 19.8933 56.9295 19.3656 56.9295 18.7629V9.31394H60.9928V6.32248H56.9295V2.15381H53.7737V3.6308C53.7737 4.43955 53.5429 5.08906 53.0845 5.58243C52.6261 6.0758 51.993 6.32248 51.1885 6.32248H47.8643C48.5753 6.85333 49.1709 7.49658 49.6418 8.24288C49.8569 8.58637 50.0409 8.94235 50.1937 9.31394H53.7737V18.8629C53.7737 20.7021 54.2539 22.1229 55.2175 23.1315C56.1811 24.1401 57.547 24.6459 59.3151 24.6459C59.5615 24.6459 59.8639 24.6272 60.2194 24.596C60.5781 24.5616 60.9024 24.5116 61.1955 24.4429V21.6857C60.9928 21.7107 60.7745 21.7325 60.5406 21.7544Z" fill="#D9D9D9"/>
<path d="M69.6594 24.6461C67.8912 24.6461 66.5254 24.1403 65.5618 23.1317C64.5982 22.1231 64.1179 20.6991 64.1179 18.8631V9.31413H60.8623V6.32268H61.5328C62.3373 6.32268 62.9704 6.07599 63.4288 5.58262C63.8872 5.08925 64.1179 4.43975 64.1179 3.63099V2.15088H67.2738V6.31955H71.3371V9.31101H67.2738V18.76C67.2738 19.3658 67.3673 19.8904 67.5607 20.34C67.7509 20.7897 68.069 21.1426 68.518 21.3986C68.9671 21.6578 69.5596 21.7858 70.2986 21.7858C70.4546 21.7858 70.651 21.7733 70.8849 21.7515C71.1188 21.7296 71.3371 21.7077 71.5398 21.6828V24.44C71.2498 24.5087 70.9223 24.5587 70.5668 24.5899C70.2082 24.6243 69.9057 24.6399 69.6594 24.6399V24.6461Z" fill="#D9D9D9"/>
<path d="M81.4096 24.8455C79.6633 24.8455 78.101 24.4302 76.7257 23.6027C75.3505 22.7721 74.2684 21.6355 73.4857 20.1897C72.703 18.744 72.3101 17.1233 72.3101 15.331C72.3101 13.5386 72.6999 11.9023 73.4857 10.4909C74.2715 9.07951 75.3225 7.96474 76.6415 7.14662C77.9606 6.32849 79.4606 5.91943 81.1414 5.91943C82.4855 5.91943 83.6767 6.15987 84.7183 6.64388C85.7598 7.12476 86.6423 7.77426 87.372 8.5955C88.0986 9.41363 88.6599 10.3442 89.0497 11.3871C89.4395 12.4301 89.636 13.5105 89.636 14.6315C89.636 14.9 89.6204 15.1811 89.5861 15.4715C89.5518 15.7619 89.5144 16.0554 89.4676 16.3458H74.627V13.6229H87.6558L86.1465 14.8345C86.371 13.6697 86.2681 12.6268 85.844 11.7087C85.4168 10.7907 84.79 10.06 83.9636 9.52292C83.1341 8.98583 82.1954 8.71729 81.1445 8.71729C80.0936 8.71729 79.13 8.99207 78.2569 9.54165C77.3837 10.0912 76.707 10.8594 76.2268 11.8461C75.7466 12.8329 75.5501 14.0101 75.6405 15.3778C75.5501 16.7018 75.759 17.8603 76.2611 18.8564C76.7632 19.8556 77.4804 20.6269 78.4097 21.1765C79.339 21.726 80.3525 22.0008 81.447 22.0008C82.657 22.0008 83.6736 21.7198 84.5031 21.1609C85.3326 20.6019 86.003 19.8837 86.5176 19.0094L89.137 20.3552C88.7784 21.1858 88.2234 21.9415 87.4749 22.6254C86.7234 23.3092 85.8346 23.8525 84.8056 24.2554C83.7765 24.6582 82.6445 24.8611 81.4127 24.8611L81.4096 24.8455Z" fill="#D9D9D9"/>
<path d="M98.4759 24.8461C96.6641 24.8461 95.0831 24.3996 93.7421 23.5003C92.3981 22.6041 91.4376 21.3925 90.8545 19.8687L93.3742 18.6571C93.8887 19.7344 94.5935 20.5838 95.4885 21.2114C96.3834 21.839 97.3813 22.1544 98.4759 22.1544C99.4364 22.1544 100.244 21.9202 100.893 21.4487C101.541 20.9772 101.866 20.362 101.866 19.6001C101.866 19.063 101.713 18.6321 101.413 18.3043C101.111 17.9795 100.752 17.7203 100.338 17.5298C99.9229 17.3394 99.5268 17.1989 99.1464 17.1083L96.4271 16.3339C94.8149 15.8842 93.633 15.2191 92.8846 14.3323C92.133 13.4486 91.7588 12.4213 91.7588 11.2565C91.7588 10.1792 92.0333 9.24558 92.5821 8.44932C93.1309 7.65306 93.8794 7.03166 94.8305 6.582C95.7816 6.13547 96.8512 5.91064 98.0362 5.91064C99.6266 5.91064 101.052 6.31346 102.318 7.12221C103.581 7.92785 104.485 9.06135 105.021 10.5165L102.471 11.6937C102.068 10.7538 101.463 10.0137 100.659 9.47353C99.8543 8.93645 98.9468 8.6679 97.9395 8.6679C97.0227 8.6679 96.293 8.89273 95.7566 9.33926C95.2203 9.78892 94.9521 10.3697 94.9521 11.0879C94.9521 11.5813 95.0862 11.9904 95.3544 12.3151C95.6226 12.6399 95.9469 12.8865 96.3273 13.0552C96.7078 13.2238 97.0757 13.3643 97.4344 13.4767L100.388 14.351C101.866 14.7757 103.013 15.4377 103.83 16.3339C104.647 17.2301 105.056 18.3074 105.056 19.5627C105.056 20.5713 104.775 21.4799 104.217 22.2856C103.656 23.0912 102.885 23.7188 101.9 24.1685C100.915 24.615 99.7732 24.8399 98.4759 24.8399V24.8461Z" fill="#D9D9D9"/>
<path d="M116.345 21.7544C116.108 21.7762 115.912 21.7887 115.756 21.7887C115.017 21.7887 114.424 21.6576 113.978 21.4015C113.529 21.1424 113.211 20.7895 113.021 20.343C112.831 19.8933 112.734 19.3656 112.734 18.7629V9.31394H116.797V6.32248H112.734V2.15381H109.578V3.6308C109.578 4.43955 109.347 5.08906 108.889 5.58243C108.431 6.0758 107.798 6.32248 106.993 6.32248H103.357C104.442 7.09377 105.281 8.09924 105.867 9.31394H109.578V18.8629C109.578 20.7021 110.058 22.1229 111.022 23.1315C111.986 24.1401 113.348 24.6459 115.12 24.6459C115.363 24.6459 115.665 24.6272 116.024 24.596C116.383 24.5616 116.707 24.5116 117 24.4429V21.6857C116.797 21.7107 116.579 21.7325 116.345 21.7544Z" fill="#D9D9D9"/>
<path d="M17.9078 7.61867L19.4265 5.84816V0.520996H3.49759L0.0267897 5.13308L-0.00127611 18.4229H2.35001L-0.00439453 21.252V26.4823H15.4411L21.3537 21.4456L25.2673 17.305V13.8327L17.9078 7.6218V7.61867ZM18.307 4.71777H12.7936L14.7488 6.37588L24.1446 14.3479V16.7773L18.9026 21.227H4.62022V18.1543H21.809L19.8537 16.4962L10.1242 8.24007L8.5775 6.92858V12.9708H4.62022V1.64513H18.307V4.71777Z" fill="#FF8700"/>
</g>
<defs>
<clipPath id="clip0_1082_5368">
<rect width="117" height="25.9582" fill="white" transform="translate(0 0.520996)"/>
</clipPath>
</defs>
</svg>
