<svg width="42" height="41" viewBox="0 0 42 41" fill="none" xmlns="http://www.w3.org/2000/svg">
<path d="M0.75 8.00024C0.75 3.58197 4.33172 0.000244141 8.75 0.000244141H33.75C38.1683 0.000244141 41.75 3.58197 41.75 8.00024V33.0002C41.75 37.4185 38.1683 41.0002 33.75 41.0002H8.75C4.33172 41.0002 0.75 37.4185 0.75 33.0002V8.00024Z" fill="#8BF7C6"/>
<path d="M33.7476 24.6367H24.1719V27.7121H33.7476V24.6367Z" fill="black"/>
<path d="M24.9865 12.71L16.2616 24.82H8.75V27.712H15.7873C16.8255 27.712 17.8189 27.3049 18.5538 26.5774C18.7024 26.4302 18.8367 26.273 18.9589 26.1058L26.5397 15.7047H33.75V12.71H24.9865Z" fill="black"/>
</svg>
