<svg width="42" height="41" viewBox="0 0 42 41" fill="none" xmlns="http://www.w3.org/2000/svg">
<path d="M0.75 8.00024C0.75 3.58197 4.33172 0.000244141 8.75 0.000244141H33.75C38.1683 0.000244141 41.75 3.58197 41.75 8.00024V33.0002C41.75 37.4185 38.1683 41.0002 33.75 41.0002H8.75C4.33172 41.0002 0.75 37.4185 0.75 33.0002V8.00024Z" fill="#872AB0"/>
<path fillRule="evenodd" clipRule="evenodd" d="M24.8 18.2363L29.72 23.1213L34.606 18.2673L36.75 20.3843L29.72 27.3673L24.8 22.4823L17.041 30.1853L12.878 26.0523L7.894 31.0003L5.75 28.8823L12.878 21.8063L17.041 25.9393L24.801 18.2363H24.8Z" fill="white"/>
<path fillRule="evenodd" clipRule="evenodd" d="M24.8 10L29.72 14.885L34.606 10.031L36.75 12.148L29.72 19.131L24.8 14.246L17.041 21.949L12.878 17.816L7.894 22.764L5.75 20.646L12.878 13.57L17.041 17.703L24.801 10H24.8Z" fill="white"/>
</svg>
