<svg width="13" height="14" viewBox="0 0 13 14" fill="none" xmlns="http://www.w3.org/2000/svg">
<path d="M5.45475 0.815038C4.57878 0.531469 3.62651 0.925907 3.2076 1.74584L2.70399 2.73158C2.64415 2.8487 2.5489 2.94396 2.43177 3.00379L1.44604 3.50741C0.626102 3.92631 0.231665 4.87858 0.515233 5.75456L0.856146 6.80768C0.896652 6.93281 0.896652 7.06756 0.856146 7.19268L0.515233 8.24581C0.231665 9.12181 0.626102 10.0741 1.44604 10.493L2.43177 10.9966C2.5489 11.0564 2.64415 11.1517 2.70399 11.2688L3.2076 12.2546C3.62651 13.0745 4.57878 13.4689 5.45475 13.1854L6.50788 12.8444C6.633 12.8039 6.76775 12.8039 6.89288 12.8444L7.946 13.1854C8.822 13.4689 9.77425 13.0745 10.1932 12.2546L10.6968 11.2688C10.7566 11.1517 10.8519 11.0564 10.969 10.9966L11.9548 10.493C12.7747 10.0741 13.1691 9.12181 12.8856 8.24581L12.5446 7.19268C12.5041 7.06756 12.5041 6.93281 12.5446 6.80768L12.8856 5.75456C13.1691 4.87858 12.7747 3.92631 11.9548 3.50741L10.969 3.00379C10.8519 2.94396 10.7566 2.8487 10.6968 2.73158L10.1932 1.74584C9.77425 0.925907 8.822 0.531469 7.946 0.815038L6.89288 1.15595C6.76775 1.19645 6.633 1.19646 6.50788 1.15595L5.45475 0.815038ZM3.42523 6.84849L4.30912 5.96456L6.07688 7.73237L9.61244 4.19684L10.4963 5.08072L6.07688 9.50012L3.42523 6.84849Z" fill="url(#paint0_linear_1065_1433)"/>
<defs>
<linearGradient id="paint0_linear_1065_1433" x1="6.7004" y1="0.723633" x2="6.7004" y2="13.2768" gradientUnits="userSpaceOnUse">
<stop stop-color="#FF8700"/>
<stop offset="1" stop-color="#CCA300"/>
</linearGradient>
</defs>
</svg>
