<svg width="15" height="16" viewBox="0 0 15 16" fill="none" xmlns="http://www.w3.org/2000/svg">
<path d="M0 14.0002H15V15.5002H0V14.0002ZM1.5 8.00024H3V13.2502H1.5V8.00024ZM5.25 8.00024H6.75V13.2502H5.25V8.00024ZM8.25 8.00024H9.75V13.2502H8.25V8.00024ZM12 8.00024H13.5V13.2502H12V8.00024ZM0 4.25024L7.5 0.500244L15 4.25024V7.25024H0V4.25024ZM1.5 5.17724V5.75024H13.5V5.17724L7.5 2.17724L1.5 5.17724ZM7.5 5.00024C7.30109 5.00024 7.11032 4.92123 6.96967 4.78057C6.82902 4.63992 6.75 4.44916 6.75 4.25024C6.75 4.05133 6.82902 3.86057 6.96967 3.71991C7.11032 3.57926 7.30109 3.50024 7.5 3.50024C7.69891 3.50024 7.88968 3.57926 8.03033 3.71991C8.17098 3.86057 8.25 4.05133 8.25 4.25024C8.25 4.44916 8.17098 4.63992 8.03033 4.78057C7.88968 4.92123 7.69891 5.00024 7.5 5.00024Z" fill="#D9D9D9"/>
</svg>
