<svg width="42" height="41" viewBox="0 0 42 41" fill="none" xmlns="http://www.w3.org/2000/svg">
<path d="M0.75 8.00024C0.75 3.58197 4.33172 0.000244141 8.75 0.000244141H33.75C38.1683 0.000244141 41.75 3.58197 41.75 8.00024V33.0002C41.75 37.4185 38.1683 41.0002 33.75 41.0002H8.75C4.33172 41.0002 0.75 37.4185 0.75 33.0002V8.00024Z" fill="white"/>
<path d="M22.6657 18.5653L30.1011 11.0845L27.2804 8.24658L21.2553 14.3083L15.2303 8.24658L12.4096 11.0845L19.845 18.5653C20.2344 18.9571 20.7449 19.153 21.2553 19.153C21.7658 19.153 22.2763 18.9572 22.6657 18.5653ZM33.4296 26.5568L27.4045 20.4951L33.4296 14.4332L30.6089 11.5953L23.1734 19.0761C22.3946 19.8598 22.3946 21.1303 23.1734 21.914L30.6089 29.3948L33.4296 26.5568ZM21.2451 26.6921L27.2701 32.7539L30.0908 29.9159L22.6554 22.4352C21.8764 21.6516 20.6136 21.6516 19.8347 22.4352L12.3993 29.9159L15.2199 32.7539L21.2451 26.6921ZM19.327 21.9244C19.701 21.5481 19.9112 21.0377 19.9112 20.5054C19.9112 19.9733 19.701 19.4628 19.327 19.0865L11.8915 11.6057L9.0708 14.4437L15.096 20.5054L9.0708 26.5673L11.8915 29.4052L19.327 21.9244Z" fill="black"/>
</svg>
