<svg width="17" height="18" viewBox="0 0 17 18" fill="none" xmlns="http://www.w3.org/2000/svg">
<path d="M10.2999 7.1999H6.6999V10.7999H10.2999V7.1999ZM12.0999 7.1999V10.7999H14.7999V7.1999H12.0999ZM10.2999 15.2999V12.5999H6.6999V15.2999H10.2999ZM12.0999 15.2999H14.7999V12.5999H12.0999V15.2999ZM10.2999 2.6999H6.6999V5.3999H10.2999V2.6999ZM12.0999 2.6999V5.3999H14.7999V2.6999H12.0999ZM4.8999 7.1999H2.1999V10.7999H4.8999V7.1999ZM4.8999 15.2999V12.5999H2.1999V15.2999H4.8999ZM4.8999 2.6999H2.1999V5.3999H4.8999V2.6999ZM1.2999 0.899902H15.6999C15.9386 0.899902 16.1675 0.994723 16.3363 1.16351C16.5051 1.33229 16.5999 1.56121 16.5999 1.7999V16.1999C16.5999 16.4386 16.5051 16.6675 16.3363 16.8363C16.1675 17.0051 15.9386 17.0999 15.6999 17.0999H1.2999C1.06121 17.0999 0.832289 17.0051 0.663506 16.8363C0.494723 16.6675 0.399902 16.4386 0.399902 16.1999V1.7999C0.399902 1.56121 0.494723 1.33229 0.663506 1.16351C0.832289 0.994723 1.06121 0.899902 1.2999 0.899902Z" fill="#FF8700"/>
</svg>
