<svg width="11" height="12" viewBox="0 0 11 12" fill="none" xmlns="http://www.w3.org/2000/svg">
<path d="M0.975098 9.4125V2.325C0.975098 1.90728 1.14103 1.50668 1.4364 1.21131C1.73177 0.915937 2.13238 0.75 2.5501 0.75H9.9001C10.0393 0.75 10.1729 0.805312 10.2713 0.903769C10.3698 1.00223 10.4251 1.13576 10.4251 1.275V10.725C10.4251 10.8642 10.3698 10.9978 10.2713 11.0962C10.1729 11.1947 10.0393 11.25 9.9001 11.25H2.8126C2.32526 11.25 1.85789 11.0564 1.51329 10.7118C1.16869 10.3672 0.975098 9.89983 0.975098 9.4125ZM9.3751 10.2V8.625H2.8126C2.60374 8.625 2.40344 8.70797 2.25575 8.85565C2.10807 9.00334 2.0251 9.20364 2.0251 9.4125C2.0251 9.62136 2.10807 9.82166 2.25575 9.96935C2.40344 10.117 2.60374 10.2 2.8126 10.2H9.3751ZM2.0251 7.75192C2.27116 7.63508 2.5402 7.57464 2.8126 7.575H9.3751V1.8H2.5501C2.41086 1.8 2.27732 1.85531 2.17887 1.95377C2.08041 2.05223 2.0251 2.18576 2.0251 2.325V7.75192Z" fill="#505050"/>
</svg>
