<svg width="42" height="41" viewBox="0 0 42 41" fill="none" xmlns="http://www.w3.org/2000/svg">
<path d="M0.75 8.00024C0.75 3.58197 4.33172 0.000244141 8.75 0.000244141H33.75C38.1683 0.000244141 41.75 3.58197 41.75 8.00024V33.0002C41.75 37.4185 38.1683 41.0002 33.75 41.0002H8.75C4.33172 41.0002 0.75 37.4185 0.75 33.0002V8.00024Z" fill="white"/>
<mask id="mask0_1387_6346" style="mask-type:luminance" maskUnits="userSpaceOnUse" x="7" y="9" width="29" height="23">
<path d="M35.0958 9.06177H7.40381V31.9377H35.0958V9.06177Z" fill="white"/>
</mask>
<g mask="url(#mask0_1387_6346)">
<path d="M21.1723 13.7329V20.44V20.4464H31.9754L21.1723 13.7329ZM21.1723 9.06177H31.8783H31.8843H34.9473V20.44H32.5092L34.9473 22.8756V31.8246H34.7996H25.3578L21.1723 27.6439V31.8246H7.40381V20.4311L9.9302 20.4392L21.1166 27.5825L21.1242 20.4464H9.88726H9.84191L7.40381 18.0107V9.06177H16.9933L21.1723 13.2425V9.06177Z" fill="#83A9FA"/>
</g>
</svg>
