<svg width="15" height="14" viewBox="0 0 15 14" fill="none" xmlns="http://www.w3.org/2000/svg">
<path d="M9.99733 2.27499L8.94733 3.32499H3.8249V10.675H11.1749V5.55256L12.2249 4.50256V11.2C12.2249 11.3392 12.1696 11.4728 12.0711 11.5712C11.9727 11.6697 11.8391 11.725 11.6999 11.725H3.2999C3.16066 11.725 3.02713 11.6697 2.92867 11.5712C2.83021 11.4728 2.7749 11.3392 2.7749 11.2V2.79999C2.7749 2.66075 2.83021 2.52722 2.92867 2.42876C3.02713 2.3303 3.16066 2.27499 3.2999 2.27499H9.99733ZM11.9545 1.80249L12.6974 2.54589L7.8716 7.37169L7.1303 7.37326L7.12925 6.62934L11.9545 1.80249Z" fill="#505050"/>
</svg>
