<svg width="42" height="41" viewBox="0 0 42 41" fill="none" xmlns="http://www.w3.org/2000/svg">
<path d="M0.75 8.00024C0.75 3.58197 4.33172 0.000244141 8.75 0.000244141H33.75C38.1683 0.000244141 41.75 3.58197 41.75 8.00024V33.0002C41.75 37.4185 38.1683 41.0002 33.75 41.0002H8.75C4.33172 41.0002 0.75 37.4185 0.75 33.0002V8.00024Z" fill="#1E1E1E"/>
<path d="M20.6177 16.6286C20.128 16.7137 19.6422 16.8039 19.1643 16.8993C18.9923 16.9329 18.8203 16.9677 18.6497 17.0038C18.1652 17.1043 17.686 17.2113 17.2173 17.3235C17.0375 17.366 16.9232 17.5401 16.9561 17.718L17.0401 18.1834C17.0755 18.3807 17.2725 18.5057 17.4694 18.458C17.9236 18.3497 18.3858 18.2453 18.8558 18.1473C19.0265 18.1112 19.1971 18.0764 19.3704 18.0416C19.8496 17.9462 20.3341 17.8546 20.8238 17.7709C23.8001 17.2552 26.6674 17.0012 29.0792 17.0296C29.6241 17.036 30.1453 17.0553 30.6389 17.0914C30.7019 17.0966 30.7636 17.1017 30.824 17.1056C33.6572 17.3364 34.525 17.99 34.5893 18.3471C34.6537 18.7043 34.0655 19.608 31.4831 20.7761C31.4883 20.4061 31.4726 20.0335 31.4332 19.6583C31.4095 19.4095 31.3741 19.162 31.3295 18.9119C31.2993 18.7442 31.2651 18.5779 31.2271 18.4142C31.1929 18.2685 31.0629 18.1628 30.9106 18.1525L29.9956 18.0906C29.758 18.0751 29.5715 18.2917 29.6306 18.5173C29.6884 18.7339 29.7369 18.9544 29.7777 19.18C29.8459 19.5603 29.8879 19.9394 29.9011 20.3158C29.9168 20.691 29.9063 21.0649 29.8695 21.4336C29.859 21.5419 29.8459 21.6502 29.8315 21.7585L29.8289 21.7804C29.7829 22.1104 29.7159 22.4366 29.6319 22.755C29.519 23.1844 29.3693 23.6021 29.1895 24.003C28.0788 26.4977 25.7563 28.42 22.8273 28.9279C19.9455 29.4269 17.1386 28.4419 15.227 26.5338C15.16 26.4668 15.0682 26.4281 14.9723 26.4294L13.8091 26.4436C13.5137 26.4474 13.3535 26.7865 13.5426 27.0095C15.7955 29.6641 19.3941 31.0951 23.1003 30.4531C27.0652 29.7659 30.0901 26.8909 31.1089 23.3159C31.2245 22.9162 31.3124 22.5088 31.3741 22.0924C31.5172 22.0318 31.659 21.9712 31.7969 21.9106C34.6458 20.6536 35.9744 19.3863 35.7526 18.146C35.5307 16.9058 33.8397 16.1619 30.7256 15.9363C30.5746 15.926 30.421 15.9156 30.2647 15.9079C29.6739 15.877 29.0477 15.8641 28.3952 15.8705C26.0635 15.8924 23.3826 16.1503 20.6177 16.6299V16.6286Z" fill="#8866DD"/>
<path d="M11.7786 25.0642C11.9296 25.0745 12.0832 25.0848 12.2394 25.0925C12.8301 25.1248 13.455 25.1377 14.1075 25.1299C16.439 25.108 19.1211 24.8502 21.8859 24.3705C22.3755 24.2854 22.8626 24.1952 23.3405 24.0985C23.5124 24.065 23.6844 24.0302 23.8551 23.9941C24.3408 23.8935 24.8187 23.7865 25.2873 23.6743C25.4672 23.6318 25.5814 23.4577 25.5486 23.2798L25.4646 22.8144C25.4291 22.6171 25.2322 22.492 25.0353 22.5397C24.581 22.648 24.1176 22.7525 23.649 22.8505C23.4783 22.8866 23.3076 22.9226 23.1344 22.9562C22.6552 23.0516 22.1707 23.1431 21.6798 23.2282C18.7036 23.7439 15.8351 23.9992 13.4235 23.9709C12.8787 23.9631 12.3576 23.9425 11.8639 23.9064C11.8022 23.9012 11.7392 23.8961 11.6788 23.8922C8.8471 23.6614 7.97802 23.009 7.91369 22.6519C7.84937 22.2948 8.43881 21.3897 11.0198 20.2216C11.0145 20.5916 11.0303 20.9642 11.0697 21.3407C11.0933 21.5895 11.1288 21.8384 11.1734 22.0885C11.2036 22.2561 11.2377 22.4211 11.2758 22.5849C11.3099 22.7306 11.4399 22.8363 11.5922 22.8466L12.5059 22.9085C12.7435 22.9239 12.9299 22.7074 12.8708 22.4817C12.8131 22.2651 12.7645 22.0446 12.7238 21.8203C12.6555 21.44 12.6149 21.0583 12.5991 20.6819C12.5847 20.3054 12.5965 19.9328 12.6319 19.5653C12.6739 19.1166 12.7553 18.6757 12.8682 18.2464C12.9824 17.8183 13.1295 17.4019 13.3093 17.0009C14.4186 14.5035 16.741 12.5799 19.6738 12.0719C22.5554 11.573 25.3595 12.5567 27.271 14.4649C27.338 14.5319 27.4298 14.5706 27.5257 14.5693L28.6915 14.5564C28.9868 14.5525 29.147 14.2134 28.9579 13.9904C26.7052 11.337 23.1055 9.90589 19.3994 10.548C15.4347 11.2352 12.4101 14.1116 11.3913 17.6855C11.2771 18.0852 11.1878 18.4926 11.1261 18.9078C10.9817 18.9671 10.8412 19.0277 10.7021 19.0883C7.85593 20.3453 6.52606 21.6115 6.74793 22.853C6.96979 24.0946 8.66199 24.836 11.7747 25.0616L11.7786 25.0642Z" fill="#8866DD"/>
</svg>
