<svg width="42" height="41" viewBox="0 0 42 41" fill="none" xmlns="http://www.w3.org/2000/svg">
<path d="M0.75 8.00024C0.75 3.58197 4.33172 0.000244141 8.75 0.000244141H33.75C38.1683 0.000244141 41.75 3.58197 41.75 8.00024V33.0002C41.75 37.4185 38.1683 41.0002 33.75 41.0002H8.75C4.33172 41.0002 0.75 37.4185 0.75 33.0002V8.00024Z" fill="white"/>
<path fill-rule="evenodd" clip-rule="evenodd" d="M31.8112 12.3119L28.536 13.9806L12.7208 22.0361C12.6673 21.6282 12.6404 21.2173 12.6402 20.8059C12.6424 19.1645 13.0733 17.5522 13.8903 16.1286C14.7074 14.705 15.8821 13.5196 17.2983 12.6897C18.7144 11.8598 20.3227 11.4143 21.9641 11.3973C23.6054 11.3803 25.2226 11.7924 26.6556 12.5927L28.5303 11.6376L28.8099 11.4949C27.0927 10.2485 25.0642 9.5011 22.9487 9.33543C20.8332 9.16975 18.7131 9.5922 16.8227 10.5561C14.9323 11.52 13.3453 12.9878 12.2369 14.7972C11.1286 16.6067 10.5421 18.6874 10.5423 20.8094C10.5423 21.1024 10.5534 21.3943 10.5757 21.6851C10.6069 22.0969 10.5155 22.5086 10.3132 22.8686C10.1109 23.2286 9.80665 23.5207 9.43872 23.7082L8.4502 24.2123V26.5633L11.3605 25.0799L12.303 24.5989L13.2317 24.1259L29.9043 15.6308L31.7778 14.6768L35.6502 12.7032V10.3533L31.8112 12.3119ZM35.6502 15.0565L14.1788 25.989L12.3053 26.9453L8.4502 28.9096V31.2584L12.2789 29.3078L15.554 27.6392L31.3854 19.5722C31.4389 19.9828 31.4658 20.3964 31.4659 20.8104C31.4649 22.4537 31.0341 24.0681 30.2163 25.4934C29.3985 26.9187 28.2221 28.1054 26.8039 28.9355C25.3857 29.7657 23.7751 30.2104 22.1318 30.2256C20.4886 30.2409 18.8701 29.8261 17.4367 29.0224L17.3216 29.0834L15.2893 30.1191C17.0062 31.3656 19.0343 32.1132 21.1494 32.2793C23.2646 32.4453 25.3844 32.0234 27.2748 31.0602C29.1652 30.097 30.7525 28.6299 31.8613 26.821C32.9702 25.0122 33.5574 22.9321 33.5581 20.8104C33.5581 20.5147 33.5466 20.2189 33.5247 19.9266C33.4936 19.515 33.5848 19.1033 33.7869 18.7434C33.989 18.3835 34.2929 18.0913 34.6605 17.9035L35.6502 17.3995V15.0565Z" fill="black"/>
</svg>
