<svg width="13" height="12" viewBox="0 0 13 12" fill="none" xmlns="http://www.w3.org/2000/svg">
<path fill-rule="evenodd" clip-rule="evenodd" d="M10.4475 2.56463L9.12295 3.23945L2.72707 6.4972C2.70544 6.33224 2.69456 6.16605 2.69449 5.99969C2.69537 5.33588 2.86964 4.68384 3.20006 4.10813C3.53047 3.53241 4.00557 3.05301 4.57826 2.7174C5.15097 2.38179 5.8014 2.20162 6.46517 2.19475C7.12893 2.18787 7.78297 2.35452 8.3625 2.67818L9.12062 2.29191L9.23371 2.2342C8.53923 1.73013 7.71888 1.42789 6.86335 1.36089C6.00785 1.29389 5.15046 1.46473 4.38596 1.85454C3.62146 2.24435 2.97964 2.83794 2.5314 3.56971C2.08317 4.30148 1.84599 5.14295 1.84608 6.00109C1.84608 6.1196 1.85058 6.23765 1.85958 6.35525C1.87218 6.52177 1.83525 6.68829 1.75343 6.83388C1.67161 6.97946 1.54857 7.0976 1.39977 7.17341L1 7.37725V8.32805L2.17698 7.72816L2.55813 7.53362L2.9337 7.34235L9.6763 3.90682L10.434 3.52101L12 2.72286V1.77253L10.4475 2.56463ZM12 3.67455L3.31672 8.09577L2.55906 8.48251L1 9.27693V10.2268L2.54836 9.43796L3.87286 8.76314L10.2753 5.50074C10.2969 5.6668 10.3078 5.83406 10.3078 6.00151C10.3074 6.66606 10.1332 7.31896 9.80247 7.89537C9.47174 8.47178 8.99599 8.95167 8.42244 9.28738C7.84892 9.62312 7.19755 9.80297 6.53302 9.80913C5.86849 9.8153 5.21391 9.64755 4.63424 9.32254L4.58771 9.34721L3.76582 9.76606C4.46016 10.2702 5.28032 10.5725 6.13571 10.6396C6.9911 10.7068 7.8484 10.5362 8.6129 10.1466C9.37738 9.7571 10.0193 9.1638 10.4677 8.43227C10.9162 7.70077 11.1536 6.85953 11.1539 6.00151C11.1539 5.8819 11.1493 5.7623 11.1404 5.64409C11.1278 5.47762 11.1647 5.31114 11.2465 5.16559C11.3282 5.02002 11.4511 4.90186 11.5998 4.82593L12 4.62209V3.67455Z" fill="#D9D9D9"/>
</svg>
