<svg width="11" height="18" viewBox="0 0 11 18" fill="none" xmlns="http://www.w3.org/2000/svg">
<path d="M5.4 15.3C6.1452 15.3 6.75 15.9048 6.75 16.65C6.75 17.3952 6.1452 18 5.4 18C4.6548 18 4.05 17.3952 4.05 16.65C4.05 15.9048 4.6548 15.3 5.4 15.3ZM5.4 0C8.3826 0 10.8 2.4174 10.8 5.4C10.8 7.3485 10.1223 8.361 8.3934 9.8307C6.6591 11.304 6.3 11.9673 6.3 13.5H4.5C4.5 11.2734 5.2083 10.1745 7.2279 8.4591C8.5932 7.299 9 6.6906 9 5.4C9 3.411 7.389 1.8 5.4 1.8C3.411 1.8 1.8 3.411 1.8 5.4V6.3H0V5.4C0 2.4174 2.4174 0 5.4 0Z" fill="#505050"/>
</svg>
