<svg width="18" height="20" viewBox="0 0 18 20" fill="none" xmlns="http://www.w3.org/2000/svg">
<path d="M1.6046 1.7435L8.9999 0.100098L16.3952 1.7435C16.5951 1.78793 16.7738 1.89917 16.9019 2.05886C17.03 2.21856 17.0999 2.41716 17.0999 2.6219V11.6102C17.0998 12.4992 16.8803 13.3744 16.4608 14.1581C16.0413 14.9419 15.4348 15.6099 14.6951 16.103L8.9999 19.9001L3.3047 16.103C2.56515 15.61 1.95872 14.9421 1.53922 14.1585C1.11971 13.3749 0.900115 12.4999 0.899902 11.6111V2.6219C0.899937 2.41716 0.969776 2.21856 1.09789 2.05886C1.22601 1.89917 1.40475 1.78793 1.6046 1.7435ZM2.6999 3.3437V11.6102C2.69991 12.2028 2.84622 12.7863 3.12584 13.3088C3.40546 13.8313 3.80974 14.2766 4.3028 14.6054L8.9999 17.7374L13.697 14.6054C14.1899 14.2767 14.5941 13.8315 14.8738 13.3092C15.1534 12.7868 15.2997 12.2036 15.2999 11.6111V3.3437L8.9999 1.9451L2.6999 3.3437ZM8.9999 9.1001C8.40317 9.1001 7.83087 8.86304 7.40891 8.44109C6.98696 8.01913 6.7499 7.44683 6.7499 6.8501C6.7499 6.25336 6.98696 5.68106 7.40891 5.25911C7.83087 4.83715 8.40317 4.6001 8.9999 4.6001C9.59664 4.6001 10.1689 4.83715 10.5909 5.25911C11.0128 5.68106 11.2499 6.25336 11.2499 6.8501C11.2499 7.44683 11.0128 8.01913 10.5909 8.44109C10.1689 8.86304 9.59664 9.1001 8.9999 9.1001ZM4.9742 13.6001C5.0833 12.6087 5.55442 11.6923 6.29727 11.0267C7.04013 10.3612 8.00248 9.99309 8.9999 9.99309C9.99733 9.99309 10.9597 10.3612 11.7025 11.0267C12.4454 11.6923 12.9165 12.6087 13.0256 13.6001H4.9742Z" fill="#505050"/>
</svg>
