<svg width="133" height="29" viewBox="0 0 133 29" fill="none" xmlns="http://www.w3.org/2000/svg">
<g clip-path="url(#clip0_11_1146)">
<path d="M45.9758 27.1751C44.6353 27.1751 43.4497 26.9309 42.4153 26.4425C41.381 25.9541 40.5718 25.2773 39.9913 24.4157C39.4108 23.5505 39.1188 22.5563 39.1188 21.4295C39.1188 20.3027 39.358 19.3818 39.84 18.5201C40.3185 17.655 41.0573 16.9224 42.0565 16.3223C43.0521 15.7223 44.3117 15.2967 45.8245 15.0455L53.364 13.8071V16.7375L46.6196 17.9026C45.3073 18.1294 44.3539 18.5341 43.7593 19.1236C43.1647 19.7132 42.8692 20.4458 42.8692 21.3214C42.8692 22.1482 43.2034 22.8354 43.8719 23.3866C44.5403 23.9378 45.3812 24.2134 46.3909 24.2134C47.6786 24.2134 48.7974 23.9447 49.7438 23.404C50.6902 22.8668 51.429 22.1342 51.9603 21.2063C52.4915 20.2818 52.7554 19.2666 52.7554 18.1643V12.9803C52.7554 11.878 52.3508 10.9849 51.5416 10.2942C50.7324 9.60696 49.6593 9.2616 48.3224 9.2616C47.1614 9.2616 46.1306 9.56161 45.237 10.1616C44.3398 10.7617 43.6784 11.5396 43.2492 12.492L40.1813 10.9152C40.5612 9.98721 41.1664 9.15694 42.0002 8.41738C42.834 7.67781 43.805 7.09523 44.9168 6.66963C46.0286 6.24403 47.1896 6.03123 48.4034 6.03123C49.969 6.03123 51.3446 6.32427 52.5337 6.91383C53.7194 7.50339 54.6482 8.32319 55.3166 9.37323C55.9851 10.4233 56.3193 11.6268 56.3193 12.9803V26.7286H52.8715V22.8982L53.5153 23.1598C53.0861 23.9378 52.4986 24.632 51.7527 25.246C51.0068 25.8599 50.1484 26.3344 49.1774 26.6728C48.2063 27.0111 47.1368 27.1786 45.9758 27.1786V27.1751Z" fill="white"/>
<path d="M68.8022 23.7219C68.5348 23.7464 68.3132 23.7603 68.1373 23.7603C67.3034 23.7603 66.635 23.6138 66.1319 23.3277C65.6253 23.0382 65.2664 22.644 65.0518 22.1451C64.8372 21.6428 64.7281 21.0532 64.7281 20.3799V9.82371H69.3123V6.48171H64.7281V1.82455H61.1677V3.47461C61.1677 4.37814 60.9073 5.10375 60.3901 5.65493C59.873 6.20612 59.1588 6.48171 58.2511 6.48171H54.5007C55.3028 7.07476 55.9748 7.79339 56.506 8.62715C56.7488 9.01088 56.9564 9.40857 57.1288 9.82371H61.1677V20.4916C61.1677 22.5463 61.7095 24.1336 62.7966 25.2604C63.8837 26.3872 65.4247 26.9523 67.4196 26.9523C67.6975 26.9523 68.0388 26.9314 68.4398 26.8965C68.8444 26.8581 69.2103 26.8023 69.541 26.7255V23.6452C69.3124 23.6731 69.0661 23.6975 68.8022 23.7219Z" fill="white"/>
<path d="M79.0899 26.9523C77.095 26.9523 75.5541 26.3872 74.4669 25.2604C73.3798 24.1336 72.838 22.5429 72.838 20.4916V9.82374H69.165V6.48174H69.9214C70.8291 6.48174 71.5433 6.20615 72.0605 5.65496C72.5776 5.10378 72.838 4.37817 72.838 3.47464V1.82109H76.3984V6.47825H80.9827V9.82025H76.3984V20.3765C76.3984 21.0533 76.504 21.6393 76.7221 22.1417C76.9367 22.644 77.2956 23.0382 77.8022 23.3243C78.3088 23.6138 78.9773 23.7569 79.8111 23.7569C79.987 23.7569 80.2087 23.7429 80.4725 23.7185C80.7364 23.6941 80.9827 23.6696 81.2114 23.6417V26.7221C80.8842 26.7988 80.5147 26.8547 80.1137 26.8895C79.7091 26.9279 79.3678 26.9454 79.0899 26.9454V26.9523Z" fill="white"/>
<path d="M92.3468 27.1751C90.3766 27.1751 88.614 26.7111 87.0624 25.7867C85.5109 24.8587 84.2901 23.5889 83.407 21.9737C82.5239 20.3586 82.0806 18.548 82.0806 16.5456C82.0806 14.5432 82.5204 12.7152 83.407 11.1384C84.2936 9.56161 85.4792 8.31621 86.9674 7.40222C88.4556 6.48823 90.1479 6.03123 92.0442 6.03123C93.5606 6.03123 94.9045 6.29985 96.0796 6.84057C97.2547 7.3778 98.2504 8.10341 99.0736 9.02089C99.8934 9.93488 100.527 10.9745 100.966 12.1396C101.406 13.3048 101.628 14.5118 101.628 15.7642C101.628 16.0642 101.61 16.3782 101.572 16.7026C101.533 17.027 101.491 17.3549 101.438 17.6794H84.6947V14.6374H99.3938L97.691 15.9909C97.9443 14.6897 97.8282 13.5246 97.3497 12.4989C96.8677 11.4733 96.1605 10.657 95.2282 10.057C94.2924 9.45695 93.2334 9.15694 92.0477 9.15694C90.8621 9.15694 89.775 9.46393 88.7899 10.0779C87.8048 10.6919 87.0413 11.5501 86.4995 12.6524C85.9577 13.7548 85.7361 15.07 85.8381 16.5979C85.7361 18.0771 85.9718 19.3713 86.5382 20.4841C87.1046 21.6005 87.9138 22.4621 88.9623 23.0761C90.0107 23.6901 91.1541 23.9971 92.389 23.9971C93.7541 23.9971 94.901 23.6831 95.8369 23.0587C96.7727 22.4342 97.5291 21.6319 98.1096 20.6551L101.065 22.1586C100.66 23.0866 100.034 23.9308 99.1897 24.6948C98.3418 25.4588 97.3391 26.0658 96.1781 26.5158C95.0171 26.9658 93.74 27.1925 92.3503 27.1925L92.3468 27.1751Z" fill="white"/>
<path d="M111.601 27.1756C109.557 27.1756 107.773 26.6768 106.26 25.6721C104.744 24.6709 103.66 23.3173 103.002 21.6149L105.845 20.2614C106.426 21.4649 107.221 22.4138 108.23 23.115C109.24 23.8162 110.366 24.1685 111.601 24.1685C112.685 24.1685 113.596 23.9069 114.328 23.3801C115.059 22.8534 115.425 22.1661 115.425 21.3149C115.425 20.7149 115.253 20.2335 114.915 19.8672C114.574 19.5044 114.169 19.2149 113.701 19.0021C113.233 18.7893 112.787 18.6323 112.357 18.5311L109.289 17.666C107.471 17.1636 106.137 16.4206 105.293 15.4298C104.445 14.4426 104.023 13.2948 104.023 11.9936C104.023 10.7901 104.332 9.74703 104.951 8.85746C105.571 7.96789 106.415 7.27368 107.488 6.77133C108.561 6.27247 109.768 6.0213 111.105 6.0213C112.899 6.0213 114.507 6.47132 115.935 7.37484C117.36 8.27488 118.381 9.54121 118.986 11.1669L116.108 12.482C115.654 11.432 114.971 10.6052 114.064 10.0017C113.156 9.40167 112.132 9.10166 110.996 9.10166C109.961 9.10166 109.138 9.35283 108.533 9.85169C107.928 10.354 107.625 11.0029 107.625 11.8053C107.625 12.3564 107.777 12.8134 108.079 13.1762C108.382 13.539 108.748 13.8146 109.177 14.003C109.606 14.1914 110.021 14.3484 110.426 14.474L113.758 15.4507C115.425 15.9252 116.72 16.6647 117.642 17.666C118.563 18.6672 119.024 19.8707 119.024 21.2731C119.024 22.3999 118.708 23.415 118.078 24.3151C117.445 25.2151 116.576 25.9163 115.464 26.4186C114.352 26.9175 113.064 27.1687 111.601 27.1687V27.1756Z" fill="white"/>
<path d="M131.761 23.7219C131.494 23.7464 131.272 23.7603 131.096 23.7603C130.262 23.7603 129.594 23.6138 129.091 23.3277C128.584 23.0382 128.225 22.644 128.011 22.1451C127.796 21.6428 127.687 21.0532 127.687 20.3799V9.82371H132.271V6.48171H127.687V1.82455H124.126V3.47461C124.126 4.37814 123.866 5.10375 123.349 5.65493C122.832 6.20612 122.118 6.48171 121.21 6.48171H117.108C118.332 7.34337 119.278 8.46667 119.94 9.82371H124.126V20.4916C124.126 22.5463 124.668 24.1336 125.755 25.2604C126.843 26.3872 128.38 26.9523 130.378 26.9523C130.653 26.9523 130.994 26.9314 131.399 26.8965C131.803 26.8581 132.169 26.8023 132.5 26.7255V23.6452C132.271 23.6731 132.025 23.6975 131.761 23.7219Z" fill="white"/>
<path d="M20.7036 7.9294L22.417 5.95142V1.52588e-05H4.44597L0.530193 5.15255L0.498529 19.9997H3.15126L0.49501 23.1602V29.0035H17.9207L24.5913 23.3765L29.0066 18.7508V14.8715L20.7036 7.93289V7.9294ZM21.154 4.68858H14.9338L17.1397 6.54098L27.7401 15.4471V18.1612L21.826 23.1323H5.71253V19.6996H25.1049L22.899 17.8472L11.9222 8.62362L10.1771 7.15844V13.9087H5.71253V1.25588H21.154V4.68858Z" fill="#FF8700"/>
</g>
<defs>
<clipPath id="clip0_11_1146">
<rect width="132" height="29" fill="white" transform="translate(0.5)"/>
</clipPath>
</defs>
</svg>
