<svg width="646" height="97" viewBox="0 0 646 97" fill="none" xmlns="http://www.w3.org/2000/svg">
<g clip-path="url(#clip0_655_3565)">
<g clip-path="url(#clip1_655_3565)">
<path d="M109.119 75.9375L91.3994 94.9108C91.0139 95.3259 90.548 95.6582 90.0299 95.8875C89.5118 96.1167 88.9525 96.238 88.3861 96.2441H4.38607C3.98572 96.2415 3.59475 96.1227 3.26067 95.902C2.92659 95.6814 2.66379 95.3685 2.50421 95.0013C2.34462 94.6341 2.29513 94.2285 2.36173 93.8337C2.42834 93.4389 2.60818 93.072 2.87941 92.7775L20.5994 73.7775C20.9849 73.3623 21.4508 73.03 21.9689 72.8008C22.487 72.5716 23.0463 72.4502 23.6127 72.4441H107.613C108.018 72.4419 108.416 72.559 108.755 72.781C109.095 73.0029 109.361 73.3199 109.522 73.6923C109.683 74.0647 109.73 74.4762 109.658 74.8754C109.587 75.2747 109.399 75.644 109.119 75.9375ZM91.3994 37.6708C91.0154 37.2538 90.5497 36.9202 90.0313 36.6909C89.513 36.4615 88.9529 36.3412 88.3861 36.3375H4.38607C3.98572 36.3366 3.59383 36.4527 3.25863 36.6717C2.92343 36.8906 2.65955 37.2027 2.49945 37.5697C2.33935 37.9366 2.29002 38.3424 2.35753 38.737C2.42503 39.1317 2.60643 39.4979 2.87941 39.7908L20.5994 58.8175C20.9834 59.2345 21.4491 59.568 21.9675 59.7974C22.4858 60.0268 23.0459 60.1471 23.6127 60.1508H107.613C108.013 60.1517 108.405 60.0355 108.74 59.8166C109.075 59.5977 109.339 59.2855 109.499 58.9186C109.659 58.5516 109.709 58.1459 109.641 57.7512C109.574 57.3566 109.392 56.9903 109.119 56.6975L91.3994 37.6708ZM4.38607 24.0175H88.3861C88.9525 24.0114 89.5118 23.89 90.0299 23.6608C90.548 23.4316 91.0139 23.0993 91.3994 22.6841L109.119 3.71081C109.391 3.41631 109.57 3.04937 109.637 2.65459C109.704 2.25981 109.654 1.85418 109.495 1.487C109.335 1.11981 109.072 0.806888 108.738 0.58625C108.404 0.365612 108.013 0.246761 107.613 0.244141L23.6127 0.244141C23.0463 0.250229 22.487 0.371584 21.9689 0.600812C21.4508 0.830041 20.9849 1.16234 20.5994 1.57747L2.87941 20.5508C2.60818 20.8453 2.42834 21.2122 2.36173 21.607C2.29513 22.0018 2.34462 22.4074 2.50421 22.7746C2.66379 23.1418 2.92659 23.4547 3.26067 23.6754C3.59475 23.896 3.98572 24.0149 4.38607 24.0175Z" fill="url(#paint0_linear_655_3565)"/>
<path d="M210.973 40.7776H166.066V25.8442H222.666V10.9109H165.959C162.027 10.9109 158.256 12.473 155.475 15.2535C152.695 18.0341 151.133 21.8053 151.133 25.7376V40.8842C151.133 42.8313 151.516 44.7593 152.261 46.5581C153.007 48.357 154.099 49.9915 155.475 51.3683C158.256 54.1488 162.027 55.7109 165.959 55.7109H210.866V70.6442H152.199V85.5776H210.973C214.905 85.5776 218.676 84.0155 221.457 81.2349C224.237 78.4544 225.799 74.6832 225.799 70.7509V55.6042C225.799 53.6572 225.416 51.7292 224.671 49.9303C223.926 48.1314 222.834 46.497 221.457 45.1202C220.08 43.7434 218.446 42.6513 216.647 41.9062C214.848 41.1611 212.92 40.7776 210.973 40.7776Z" fill="black"/>
<path d="M297.88 10.9109H252.853C248.921 10.9109 245.15 12.473 242.369 15.2535C239.588 18.0341 238.026 21.8053 238.026 25.7376V70.7509C238.026 74.6832 239.588 78.4544 242.369 81.2349C245.15 84.0155 248.921 85.5776 252.853 85.5776H297.88C299.826 85.5776 301.753 85.194 303.552 84.4487C305.35 83.7034 306.983 82.6111 308.359 81.2341C309.735 79.8572 310.826 78.2226 311.569 76.4238C312.313 74.625 312.695 72.6973 312.693 70.7509V25.7376C312.695 23.7911 312.313 21.8634 311.569 20.0646C310.826 18.2659 309.735 16.6313 308.359 15.2543C306.983 13.8774 305.35 12.785 303.552 12.0398C301.753 11.2945 299.826 10.9109 297.88 10.9109ZM297.76 70.6442H252.96V25.8442H297.76V70.6442Z" fill="black"/>
<path d="M455.653 10.9109H411.653C409.706 10.9109 407.778 11.2944 405.979 12.0395C404.18 12.7846 402.546 13.8767 401.169 15.2535C399.792 16.6303 398.7 18.2648 397.955 20.0636C397.21 21.8625 396.826 23.7905 396.826 25.7376V85.5776H411.76V61.0442H455.493V85.5776H470.426V25.7376C470.426 21.8145 468.871 18.0513 466.102 15.2723C463.333 12.4933 459.576 10.925 455.653 10.9109ZM455.546 46.1109H411.813V25.8442H455.546V46.1109Z" fill="black"/>
<path d="M630.506 10.9109H586.506C582.583 10.925 578.825 12.4933 576.056 15.2723C573.287 18.0513 571.732 21.8145 571.732 25.7376V85.5776H586.666V61.0442H630.399V85.5776H645.332V25.7376C645.332 23.7905 644.949 21.8625 644.204 20.0636C643.459 18.2648 642.367 16.6303 640.99 15.2535C639.613 13.8767 637.979 12.7846 636.18 12.0395C634.381 11.2944 632.453 10.9109 630.506 10.9109ZM630.399 46.1109H586.666V25.8442H630.399V46.1109Z" fill="black"/>
<path d="M543.506 70.6442H537.532L516.199 17.1242C515.458 15.2797 514.179 13.7008 512.529 12.5927C510.879 11.4847 508.933 10.8986 506.946 10.9108H493.612C490.992 10.9108 488.479 11.9518 486.626 13.8046C484.773 15.6575 483.732 18.1705 483.732 20.7908V85.5775H498.666V25.8442H504.639L526.052 79.3642C526.788 81.2044 528.06 82.7809 529.703 83.8889C531.346 84.997 533.284 85.5853 535.266 85.5775H548.599C549.897 85.5775 551.181 85.3219 552.38 84.8254C553.579 84.3289 554.668 83.6012 555.585 82.6837C556.503 81.7663 557.231 80.6771 557.727 79.4784C558.224 78.2797 558.479 76.995 558.479 75.6975V10.9108H543.546L543.506 70.6442Z" fill="black"/>
<path d="M340.92 10.9109H325.986V70.7509C325.986 74.6832 327.548 78.4544 330.329 81.2349C333.109 84.0155 336.881 85.5776 340.813 85.5776H385.72V70.6442H340.92V10.9109Z" fill="black"/>
</g>
</g>
<defs>
<linearGradient id="paint0_linear_655_3565" x1="11.3861" y1="98.5375" x2="99.4794" y2="-0.769188" gradientUnits="userSpaceOnUse">
<stop offset="0.08" stop-color="#9945FF"/>
<stop offset="0.3" stop-color="#8752F3"/>
<stop offset="0.5" stop-color="#5497D5"/>
<stop offset="0.6" stop-color="#43B4CA"/>
<stop offset="0.72" stop-color="#28E0B9"/>
<stop offset="0.97" stop-color="#19FB9B"/>
</linearGradient>
<clipPath id="clip0_655_3565">
<rect width="645.333" height="96" fill="white" transform="translate(-0.000488281 0.244141)"/>
</clipPath>
<clipPath id="clip1_655_3565">
<rect width="645.333" height="96" fill="white" transform="translate(-0.000488281 0.244141)"/>
</clipPath>
</defs>
</svg>
