<?xml version="1.0" encoding="utf-8"?>
<!-- Generator: Adobe Illustrator 27.4.0, SVG Export Plug-In . SVG Version: 6.00 Build 0)  -->
<svg version="1.1" xmlns="http://www.w3.org/2000/svg" xmlns:xlink="http://www.w3.org/1999/xlink" x="0px" y="0px"
	 viewBox="0 0 1745.5 623.5" style="enable-background:new 0 0 1745.5 623.5;" xml:space="preserve">
<style type="text/css">
	.st0{fill:#F6F7F8;}
</style>
<g id="Layer_2">
</g>
<g id="Layer_1">
	<g>
		<g>
			<path class="st0" d="M342.9,124.7c24.9,0,49,4.9,71.8,14.5c12.1,5.1,23.7,11.6,34.5,19.2l-2.3,1.2l-29.6,15.1
				c-22.6-12.6-48.3-19.2-74.4-19.2c-0.4,0-0.8,0-1.2,0c-20.1,0.2-39.7,4.2-58.2,11.9c-18.5,7.8-35.1,18.9-49.3,33.1
				c-29,29.1-45,67.7-45,108.7c0,6.7,0.4,13.4,1.3,20.1l0.3,2.1l1.9-1l255.5-130.3l52.9-27l59.9-30.6v34.6l-61.7,31.5l-30.3,15.4
				L199.7,361.5l-1.2,0.7l0,0l-13.8,7l-14,7.1l0-0.1l-1.3,0.6l-44.8,22.9v-34.6l15.2-7.7c12.7-6.5,20.3-19.9,19.2-34.2
				c-0.3-4.7-0.5-9.4-0.5-14.1c0-24.9,4.9-49.1,14.5-71.9c9.3-22,22.6-41.7,39.5-58.7c16.9-16.9,36.6-30.3,58.6-39.6
				C293.8,129.6,318,124.7,342.9,124.7"/>
		</g>
		<g>
			<path class="st0" d="M561.1,223.4V258l-15.2,7.7c-12.7,6.5-20.3,19.9-19.2,34.2c0.4,4.7,0.5,9.5,0.5,14.2
				c0,24.9-4.9,49.1-14.5,71.9c-9.3,22-22.6,41.7-39.5,58.7c-16.9,17-36.7,30.3-58.6,39.6c-22.7,9.6-46.9,14.5-71.8,14.5
				s-49-4.9-71.8-14.5c-12.2-5.2-23.8-11.7-34.6-19.3l30.6-15.6l1.2-0.6c22.6,12.6,48.4,19.3,74.6,19.3c0.4,0,0.7,0,1.1,0
				c20.1-0.1,39.7-4.1,58.2-11.9c18.5-7.8,35.1-18.9,49.3-33.1c29-29,45-67.7,45-108.7c0-6.7-0.4-13.5-1.3-20.2l-0.3-2.1l-1.9,1
				L237.2,423.2l-52.9,27l-59.7,30.4V446l61.5-31.4l30.3-15.4L561.1,223.4"/>
		</g>
	</g>
	<g>
		<path class="st0" d="M869.6,251.5h-33.8c-8.5-28.7-36.5-38.3-61.5-38.3c-19.1,0-52.6,8.5-52.6,36.2c0,21.9,17.4,32.8,40.3,37.9
			l28.7,6.5c37.9,8.2,83.3,22.5,83.3,72.4c0,48.5-45.1,74.1-94.3,74.1c-58.4,0-95.3-31.8-101.8-81.3h34.2
			c6.5,34.2,30.4,51.9,68.3,51.9c36.5,0,57.7-17.4,57.7-41.7c0-26-22.2-36.9-53.3-43.7l-30.7-6.5c-33.8-7.5-68-26.3-68-67.6
			c0-47.1,49.5-67.6,89.5-67.6C820.1,183.9,860,203.7,869.6,251.5z"/>
		<path class="st0" d="M950.9,206.1v46.1h34.8v24.9h-34.8v108.9c0,19.1,1.4,23.9,19.1,23.9h15.7v26h-22.5
			c-35.2,0-43.4-7.9-43.4-46.1V277.1h-29v-24.9h29v-46.1H950.9z"/>
		<path class="st0" d="M1090.9,413.1c27.3,0,42.3-12.3,50.2-30.4h32.1c-8.5,31.8-37.6,57.7-82.3,57.7c-58.1,0-90.2-41.7-90.2-96
			c0-58.1,38.9-95.3,89.1-95.3c56,0,89.8,47.1,85.7,105.2h-141.4C1035.6,393.9,1063.6,413.1,1090.9,413.1z M1142.8,327.7
			c-0.7-26-20.1-51.9-52.9-51.9c-27.7,0-52.6,15-55.3,51.9H1142.8z"/>
		<path class="st0" d="M1205,435.9V188.3h31.1v247.6H1205z"/>
		<path class="st0" d="M1274.3,435.9V188.3h31.1v247.6H1274.3z"/>
		<path class="st0" d="M1458.4,322.9v-4.4c0-33.5-18.8-44.7-41.7-44.7c-25.6,0-40.6,14-42,36.5h-32.1c3.1-39.6,37.9-61.8,73.8-61.8
			c50.5,0,73.4,24.2,73.1,75.8l-0.3,42.3c-0.3,30.7,1.4,51.9,4.8,69.3h-31.4c-1-6.8-2-14.3-2.4-25.3c-11.3,18.8-30.4,29.7-62.8,29.7
			c-34.5,0-63.2-19.1-63.2-52.9C1334.1,344.1,1382.9,331.4,1458.4,322.9z M1368.6,386.8c0,17.4,13.3,29,35.5,29
			c29,0,56.7-13.3,56.7-56.7v-11.6C1404.4,353.3,1368.6,361.5,1368.6,386.8z"/>
		<path class="st0" d="M1602.5,283.3c-28.7,0-43,16.1-43,56.4v96.3h-31.1V252.2h30.4v32.1c9.2-20.8,28-32.4,51.9-33.1
			c3.1,0,5.8,0,9.2,0.3v33.1C1613.4,284,1607.6,283.3,1602.5,283.3z"/>
	</g>
</g>
</svg>
