<svg width="91" height="92" viewBox="0 0 91 92" fill="none" xmlns="http://www.w3.org/2000/svg">
<g id="Aptos" filter="url(#filter0_bd_11651_104634)">
<g clip-path="url(#clip0_11651_104634)">
<path d="M8.01367 51.7064C8.01367 31.0902 24.7264 14.3774 45.3426 14.3774V14.3774C65.9588 14.3774 82.6715 31.0902 82.6715 51.7064V51.7064C82.6715 72.3226 65.9588 89.0353 45.3426 89.0353V89.0353C24.7264 89.0353 8.01367 72.3226 8.01367 51.7064V51.7064Z" fill="url(#paint0_radial_11651_104634)"/>
<g id="Vector">
<path d="M54.0023 46.6986H51.146C50.8138 46.6986 50.4969 46.5664 50.2759 46.3366L49.1182 45.1288C48.9458 44.9491 48.697 44.8451 48.4371 44.8451C48.1772 44.8451 47.9284 44.9478 47.7561 45.1288L46.7623 46.1659C46.4371 46.5048 45.97 46.6999 45.4794 46.6999H29.8487C29.4039 47.8718 29.1134 49.1092 28.998 50.394H43.7546C44.0145 50.394 44.2618 50.2965 44.4412 50.1232L45.8158 48.7998C45.9867 48.6342 46.2244 48.5406 46.4718 48.5406H46.5288C46.7887 48.5406 47.0375 48.6432 47.2098 48.8242L48.3676 50.032C48.5886 50.2618 48.9041 50.394 49.2377 50.394H61.2825C61.1672 49.1092 60.8766 47.8718 60.4319 46.6999H54.0023V46.6986Z" fill="white"/>
<path d="M38.0559 58.9683C38.3112 58.9683 38.5543 58.8626 38.7304 58.6748L40.0806 57.2404C40.2485 57.0609 40.482 56.9594 40.725 56.9594H40.781C41.0363 56.9594 41.2807 57.0707 41.45 57.2668L42.5872 58.576C42.8043 58.825 43.1142 58.9683 43.4419 58.9683H59.4756C60.0763 57.7037 60.516 56.3458 60.7781 54.9253H45.3888C45.0625 54.9253 44.7512 54.782 44.5341 54.533L43.3968 53.2239C43.2275 53.0291 42.9832 52.9164 42.7279 52.9164C42.4725 52.9164 42.2282 53.0277 42.0589 53.2239L41.0827 54.348C40.7632 54.7152 40.3045 54.9267 39.8226 54.9267H29.5025C29.7646 56.3486 30.2042 57.705 30.805 58.9697H38.0559V58.9683Z" fill="white"/>
<path d="M49.2246 42.3229C49.4827 42.3229 49.7284 42.2158 49.9064 42.0256L51.2714 40.5736C51.4412 40.3919 51.6772 40.289 51.9229 40.289H51.9795C52.2376 40.289 52.4846 40.4017 52.6558 40.6003L53.8054 41.9257C54.0249 42.1778 54.3382 42.3229 54.6695 42.3229H57.7514C54.8157 38.3411 50.1466 35.7651 44.8881 35.7651C39.6296 35.7651 34.9604 38.3411 32.0247 42.3229H49.226H49.2246Z" fill="white"/>
<path d="M43.0199 62.9667H38.7717C38.4392 62.9667 38.122 62.8255 37.9008 62.5801L36.7421 61.2902C36.5696 61.0983 36.3206 60.9873 36.0605 60.9873C35.8004 60.9873 35.5514 61.0969 35.3789 61.2902L34.3843 62.3978C34.0588 62.7597 33.5914 62.9681 33.1004 62.9681H33.0336C35.9937 66.0934 40.2072 68.0495 44.8881 68.0495C49.5689 68.0495 53.7824 66.0934 56.7425 62.9681H43.0199V62.9667Z" fill="white"/>
</g>
</g>
<path d="M45.3426 88.7864C24.8638 88.7864 8.26253 72.1851 8.26253 51.7064C8.26253 31.2276 24.8638 14.6263 45.3426 14.6263C65.8214 14.6263 82.4227 31.2276 82.4227 51.7064C82.4227 72.1851 65.8214 88.7864 45.3426 88.7864Z" stroke="url(#paint1_linear_11651_104634)" stroke-opacity="0.4" stroke-width="0.497719"/>
</g>
<defs>
<filter id="filter0_bd_11651_104634" x="-1.94071" y="0.441308" width="94.567" height="98.5484" filterUnits="userSpaceOnUse" color-interpolation-filters="sRGB">
<feFlood flood-opacity="0" result="BackgroundImageFix"/>
<feGaussianBlur in="BackgroundImageFix" stdDeviation="4.97719"/>
<feComposite in2="SourceAlpha" operator="in" result="effect1_backgroundBlur_11651_104634"/>
<feColorMatrix in="SourceAlpha" type="matrix" values="0 0 0 0 0 0 0 0 0 0 0 0 0 0 0 0 0 0 127 0" result="hardAlpha"/>
<feMorphology radius="0.995438" operator="dilate" in="SourceAlpha" result="effect2_dropShadow_11651_104634"/>
<feOffset dy="-5.97263"/>
<feGaussianBlur stdDeviation="3.48403"/>
<feComposite in2="hardAlpha" operator="out"/>
<feColorMatrix type="matrix" values="0 0 0 0 0 0 0 0 0 0 0 0 0 0 0 0 0 0 0.3 0"/>
<feBlend mode="normal" in2="effect1_backgroundBlur_11651_104634" result="effect2_dropShadow_11651_104634"/>
<feBlend mode="normal" in="SourceGraphic" in2="effect2_dropShadow_11651_104634" result="shape"/>
</filter>
<radialGradient id="paint0_radial_11651_104634" cx="0" cy="0" r="1" gradientUnits="userSpaceOnUse" gradientTransform="translate(21.5328 75.7179) rotate(-39.4945) scale(71.3832)">
<stop stop-color="#050505"/>
<stop offset="0.727209" stop-color="#161616"/>
<stop offset="0.99" stop-color="#515151"/>
</radialGradient>
<linearGradient id="paint1_linear_11651_104634" x1="66.5293" y1="15.5881" x2="50.9924" y2="48.4779" gradientUnits="userSpaceOnUse">
<stop stop-color="white"/>
<stop offset="1" stop-color="white" stop-opacity="0"/>
</linearGradient>
<clipPath id="clip0_11651_104634">
<path d="M8.01367 51.7064C8.01367 31.0902 24.7264 14.3774 45.3426 14.3774V14.3774C65.9588 14.3774 82.6715 31.0902 82.6715 51.7064V51.7064C82.6715 72.3226 65.9588 89.0353 45.3426 89.0353V89.0353C24.7264 89.0353 8.01367 72.3226 8.01367 51.7064V51.7064Z" fill="white"/>
</clipPath>
</defs>
</svg>
