<svg width="116" height="116" viewBox="0 0 116 116" fill="none" xmlns="http://www.w3.org/2000/svg">
<g id="Cosmos" filter="url(#filter0_bdi_11651_104625)">
<path d="M20.6719 71.0487C20.6719 50.4325 37.3846 33.7197 58.0008 33.7197V33.7197C78.617 33.7197 95.3297 50.4325 95.3297 71.0487V71.0487C95.3297 91.6649 78.617 108.378 58.0008 108.378V108.378C37.3846 108.378 20.6719 91.6649 20.6719 71.0487V71.0487Z" fill="url(#paint0_radial_11651_104625)"/>
<path d="M58.0008 108.103C37.5365 108.103 20.9469 91.5129 20.9469 71.0487C20.9469 50.5844 37.5365 33.9948 58.0008 33.9948C78.4651 33.9948 95.0547 50.5844 95.0547 71.0487C95.0547 91.5129 78.4651 108.103 58.0008 108.103Z" stroke="url(#paint1_linear_11651_104625)" stroke-opacity="0.4" stroke-width="0.550111"/>
<path id="Vector" fill-rule="evenodd" clip-rule="evenodd" d="M61.915 64.4011L51.4492 74.8583C51.2992 74.5894 51.1793 74.3205 51.0593 74.0516C50.3396 72.1095 50.3396 69.9583 51.0593 67.9864C51.4192 67.0602 51.929 66.2236 52.5887 65.5066C53.2485 64.7895 54.0282 64.2218 54.8978 63.8334C55.8274 63.4151 56.877 63.206 57.8966 63.206C58.9162 63.206 59.9358 63.4151 60.8954 63.8334C61.2853 64.0127 61.5852 64.1919 61.915 64.4011ZM60.9854 78.2344C60.0558 78.6527 59.0062 78.8619 57.9866 78.8619C56.5771 78.8917 55.1977 78.4734 54.0281 77.6966L64.464 67.2395C64.614 67.5084 64.7339 67.7773 64.8239 68.0462C65.5436 69.9882 65.5436 72.1394 64.8239 74.1113C64.494 75.0375 63.9842 75.8741 63.3245 76.5912C62.6647 77.3082 61.8851 77.846 60.9854 78.2344ZM62.5748 81.521C63.9242 80.9234 65.1838 80.0868 66.2333 79.0411C67.2529 77.9954 68.0626 76.7704 68.6324 75.4259C69.7719 72.6174 69.7719 69.4504 68.6324 66.6419C68.3025 65.8352 67.9127 65.0883 67.4029 64.3712L74.2102 57.5591L71.5113 54.8402L64.674 61.6822C64.0442 61.2341 63.3545 60.8755 62.6647 60.6066C61.1953 60.0091 59.606 59.6804 58.0166 59.7103C54.9278 59.6804 51.929 60.9054 49.7698 63.0865C48.7502 64.1322 47.9106 65.3572 47.3708 66.7017C45.8714 70.3467 46.3212 74.5296 48.6303 77.7564L41.793 84.5386L44.4919 87.2575L51.3292 80.4155C51.959 80.8338 52.6187 81.1923 53.3084 81.4911C54.7779 82.0886 56.3672 82.4173 57.9566 82.3874C59.516 82.4472 61.1054 82.1185 62.5748 81.521Z" fill="white"/>
</g>
<defs>
<filter id="filter0_bdi_11651_104625" x="0.317788" y="0.166131" width="115.366" height="119.214" filterUnits="userSpaceOnUse" color-interpolation-filters="sRGB">
<feFlood flood-opacity="0" result="BackgroundImageFix"/>
<feGaussianBlur in="BackgroundImageFix" stdDeviation="5.50111"/>
<feComposite in2="SourceAlpha" operator="in" result="effect1_backgroundBlur_11651_104625"/>
<feColorMatrix in="SourceAlpha" type="matrix" values="0 0 0 0 0 0 0 0 0 0 0 0 0 0 0 0 0 0 127 0" result="hardAlpha"/>
<feMorphology radius="1.10022" operator="dilate" in="SourceAlpha" result="effect2_dropShadow_11651_104625"/>
<feOffset dy="-13.1995"/>
<feGaussianBlur stdDeviation="9.62693"/>
<feComposite in2="hardAlpha" operator="out"/>
<feColorMatrix type="matrix" values="0 0 0 0 0 0 0 0 0 0 0 0 0 0 0 0 0 0 0.2 0"/>
<feBlend mode="normal" in2="effect1_backgroundBlur_11651_104625" result="effect2_dropShadow_11651_104625"/>
<feBlend mode="normal" in="SourceGraphic" in2="effect2_dropShadow_11651_104625" result="shape"/>
<feColorMatrix in="SourceAlpha" type="matrix" values="0 0 0 0 0 0 0 0 0 0 0 0 0 0 0 0 0 0 127 0" result="hardAlpha"/>
<feMorphology radius="5.50111" operator="erode" in="SourceAlpha" result="effect3_innerShadow_11651_104625"/>
<feOffset dy="7.70155"/>
<feGaussianBlur stdDeviation="8.25166"/>
<feComposite in2="hardAlpha" operator="arithmetic" k2="-1" k3="1"/>
<feColorMatrix type="matrix" values="0 0 0 0 0 0 0 0 0 0 0 0 0 0 0 0 0 0 0.3 0"/>
<feBlend mode="normal" in2="shape" result="effect3_innerShadow_11651_104625"/>
</filter>
<radialGradient id="paint0_radial_11651_104625" cx="0" cy="0" r="1" gradientUnits="userSpaceOnUse" gradientTransform="translate(34.191 95.0602) rotate(-39.4945) scale(71.3832)">
<stop/>
<stop offset="0.727209" stop-color="#0F0F0F"/>
<stop offset="1" stop-color="#515151"/>
</radialGradient>
<linearGradient id="paint1_linear_11651_104625" x1="79.1875" y1="34.9304" x2="63.6506" y2="67.8202" gradientUnits="userSpaceOnUse">
<stop stop-color="white"/>
<stop offset="1" stop-color="white" stop-opacity="0"/>
</linearGradient>
</defs>
</svg>
