<svg width="90" height="94" viewBox="0 0 90 94" fill="none" xmlns="http://www.w3.org/2000/svg">
<g id="Frame 21" filter="url(#filter0_bdi_11651_104638)">
<path d="M7.67188 37.7064C7.67188 17.0902 24.3846 0.377441 45.0008 0.377441V0.377441C65.617 0.377441 82.3297 17.0902 82.3297 37.7064V37.7064C82.3297 58.3226 65.617 75.0353 45.0008 75.0353V75.0353C24.3846 75.0353 7.67188 58.3226 7.67188 37.7064V37.7064Z" fill="url(#paint0_radial_11651_104638)"/>
<path d="M45.0008 74.8047C24.512 74.8047 7.90249 58.1952 7.90249 37.7064C7.90249 17.2175 24.512 0.608052 45.0008 0.608052C65.4896 0.608052 82.0991 17.2175 82.0991 37.7064C82.0991 58.1952 65.4896 74.8047 45.0008 74.8047Z" stroke="url(#paint1_linear_11651_104638)" stroke-opacity="0.4" stroke-width="0.461221"/>
<g id="Group 1000002250" style="mix-blend-mode:luminosity">
<path id="Vector" fill-rule="evenodd" clip-rule="evenodd" d="M35.821 32.6216L36.3615 30.9515C36.4713 30.6118 36.7395 30.3475 37.0803 30.2433L38.7586 29.7271C38.991 29.6562 38.9928 29.3285 38.7624 29.2538L37.0917 28.7132C36.7526 28.6033 36.4883 28.3353 36.3835 27.9943L35.868 26.316C35.7971 26.0843 35.4694 26.0818 35.3946 26.3129L34.854 27.983C34.7442 28.322 34.4761 28.5863 34.1351 28.6912L32.4569 29.2067C32.2246 29.2782 32.2221 29.6054 32.4531 29.6801L34.1238 30.2206C34.4629 30.3305 34.7272 30.5992 34.832 30.9402L35.3475 32.6177C35.4185 32.8501 35.7462 32.8526 35.821 32.6216Z" fill="#FAFAFA"/>
<path id="Vector_2" fill-rule="evenodd" clip-rule="evenodd" d="M62.3475 31.6486C61.6556 30.8749 60.5758 30.4393 59.5261 30.2607C58.4678 30.0891 57.3584 30.105 56.3138 30.2906C54.2001 30.6482 52.28 31.5233 50.6053 32.6029C49.7355 33.1329 48.9939 33.7459 48.2255 34.3703C47.8553 34.6861 47.5177 35.0225 47.1661 35.3539L46.2056 36.3097C45.1619 37.4007 44.1331 38.3943 43.1377 39.218C42.1384 40.0379 41.204 40.6605 40.2832 41.0954C39.363 41.5325 38.3783 41.7894 37.0949 41.8306C35.8229 41.8755 34.3177 41.6459 32.7078 41.2669C31.0892 40.8896 29.3896 40.3518 27.4902 39.8891C28.153 41.7277 29.1509 43.3524 30.4322 44.8376C31.7286 46.297 33.3473 47.6272 35.4267 48.5021C37.4761 49.3963 40.0516 49.7172 42.4597 49.2329C44.8743 48.7682 46.9932 47.6509 48.7058 46.3588C50.4229 45.0534 51.8121 43.5664 52.9833 42.0206C53.3066 41.5934 53.4776 41.3544 53.7116 41.0206L54.3581 40.0627C54.8076 39.4702 55.2167 38.7956 55.6614 38.2086C56.5335 36.9791 57.3933 35.7512 58.3924 34.6198C58.8953 34.0459 59.4253 33.497 60.0513 32.9696C60.3636 32.7121 60.7009 32.4601 61.0745 32.2332C61.4538 31.9883 61.8543 31.7967 62.3475 31.6486Z" fill="url(#paint2_linear_11651_104638)"/>
<path id="Vector_3" fill-rule="evenodd" clip-rule="evenodd" d="M62.3474 31.6489C61.6041 29.7733 60.2224 28.1945 58.3677 27.0295C56.5243 25.8774 53.964 25.2894 51.4269 25.7906C50.1736 26.0331 48.9593 26.4997 47.8936 27.1212C46.8328 27.7403 45.8822 28.4854 45.0594 29.2849C44.6486 29.6858 44.2757 30.1042 43.9052 30.525L42.945 31.7491L41.462 33.7196C39.5714 36.255 37.5355 39.2263 34.1946 40.1068C30.9146 40.9711 29.4921 40.2056 27.4902 39.8894C27.8563 40.8344 28.3097 41.7521 28.9243 42.5595C29.5275 43.3832 30.24 44.1569 31.1259 44.82C31.5735 45.1385 32.0461 45.4528 32.5711 45.7194C33.0936 45.9771 33.6571 46.2037 34.2585 46.3744C35.455 46.7023 36.8018 46.8172 38.106 46.6408C39.4108 46.4667 40.6579 46.0533 41.748 45.5041C42.8461 44.9601 43.8028 44.2977 44.6569 43.5985C46.3549 42.1884 47.6757 40.6303 48.7913 39.0554C49.3525 38.268 49.8618 37.4657 50.333 36.6632L50.8874 35.7079C51.0569 35.4286 51.2284 35.1476 51.4026 34.8859C52.1051 33.8345 52.7923 32.9914 53.6269 32.3586C54.4501 31.7095 55.5962 31.2299 57.1277 31.1184C58.653 31.0058 60.4137 31.214 62.3474 31.6489Z" fill="#FAFAFA"/>
<path id="Vector_4" fill-rule="evenodd" clip-rule="evenodd" d="M54.0957 47.2319C54.0957 48.6094 55.213 49.7266 56.5905 49.7266C57.968 49.7266 59.084 48.6094 59.084 47.2319C59.084 45.8543 57.968 44.7371 56.5905 44.7371C55.213 44.7371 54.0957 45.8543 54.0957 47.2319Z" fill="#EC796B"/>
</g>
</g>
<defs>
<filter id="filter0_bdi_11651_104638" x="-1.55255" y="-8.84699" width="93.1071" height="102.331" filterUnits="userSpaceOnUse" color-interpolation-filters="sRGB">
<feFlood flood-opacity="0" result="BackgroundImageFix"/>
<feGaussianBlur in="BackgroundImageFix" stdDeviation="4.61221"/>
<feComposite in2="SourceAlpha" operator="in" result="effect1_backgroundBlur_11651_104638"/>
<feColorMatrix in="SourceAlpha" type="matrix" values="0 0 0 0 0 0 0 0 0 0 0 0 0 0 0 0 0 0 127 0" result="hardAlpha"/>
<feMorphology radius="0.922443" operator="dilate" in="SourceAlpha" result="effect2_dropShadow_11651_104638"/>
<feOffset dy="11.0693"/>
<feGaussianBlur stdDeviation="3.22855"/>
<feComposite in2="hardAlpha" operator="out"/>
<feColorMatrix type="matrix" values="0 0 0 0 0 0 0 0 0 0 0 0 0 0 0 0 0 0 0.3 0"/>
<feBlend mode="normal" in2="effect1_backgroundBlur_11651_104638" result="effect2_dropShadow_11651_104638"/>
<feBlend mode="normal" in="SourceGraphic" in2="effect2_dropShadow_11651_104638" result="shape"/>
<feColorMatrix in="SourceAlpha" type="matrix" values="0 0 0 0 0 0 0 0 0 0 0 0 0 0 0 0 0 0 127 0" result="hardAlpha"/>
<feMorphology radius="4.61221" operator="erode" in="SourceAlpha" result="effect3_innerShadow_11651_104638"/>
<feOffset dy="6.4571"/>
<feGaussianBlur stdDeviation="6.91832"/>
<feComposite in2="hardAlpha" operator="arithmetic" k2="-1" k3="1"/>
<feColorMatrix type="matrix" values="0 0 0 0 0 0 0 0 0 0 0 0 0 0 0 0 0 0 0.3 0"/>
<feBlend mode="normal" in2="shape" result="effect3_innerShadow_11651_104638"/>
</filter>
<radialGradient id="paint0_radial_11651_104638" cx="0" cy="0" r="1" gradientUnits="userSpaceOnUse" gradientTransform="translate(21.191 61.7179) rotate(-39.4945) scale(71.3832)">
<stop/>
<stop offset="0.727209" stop-color="#0F0F0F"/>
<stop offset="1" stop-color="#515151"/>
</radialGradient>
<linearGradient id="paint1_linear_11651_104638" x1="66.1875" y1="1.58811" x2="50.6506" y2="34.4779" gradientUnits="userSpaceOnUse">
<stop stop-color="white"/>
<stop offset="1" stop-color="white" stop-opacity="0"/>
</linearGradient>
<linearGradient id="paint2_linear_11651_104638" x1="62.161" y1="30.9904" x2="5.19581" y2="60.6283" gradientUnits="userSpaceOnUse">
<stop stop-color="#EC796B"/>
<stop offset="1" stop-color="#D672EF"/>
</linearGradient>
</defs>
</svg>
