<svg width="120" height="125" viewBox="0 0 120 125" fill="none" xmlns="http://www.w3.org/2000/svg">
<g filter="url(#filter0_bdi_1711_5467)">
<path d="M10 50C10 22.3858 32.3858 0 60 0C87.6142 0 110 22.3858 110 50C110 77.6142 87.6142 100 60 100C32.3858 100 10 77.6142 10 50Z" fill="url(#paint0_radial_1711_5467)"/>
<path d="M10.3089 50C10.3089 22.5564 32.5564 0.30889 60 0.30889C87.4436 0.30889 109.691 22.5564 109.691 50C109.691 77.4436 87.4436 99.6911 60 99.6911C32.5564 99.6911 10.3089 77.4436 10.3089 50Z" stroke="url(#paint1_linear_1711_5467)" stroke-opacity="0.4" stroke-width="0.61778"/>
<g clip-path="url(#clip0_1711_5467)">
<path fill-rule="evenodd" clip-rule="evenodd" d="M70.5117 46.3454C72.3317 48.5942 73.4283 51.451 73.4283 54.5488C73.4283 57.6466 72.3083 60.5837 70.43 62.8554L70.2667 63.0505L70.22 62.7981C70.185 62.5915 70.1383 62.3736 70.0917 62.1556C69.1583 58.1055 66.1017 54.6291 61.0617 51.8067C57.6667 49.9136 55.7183 47.6304 55.205 45.0374C54.8783 43.3623 55.1233 41.6758 55.59 40.2301C56.0683 38.7845 56.7683 37.5798 57.3633 36.857L59.3233 34.505C59.6617 34.0919 60.315 34.0919 60.6533 34.505L70.5117 46.3454ZM73.6033 43.9934L60.49 28.2291C60.245 27.9308 59.7667 27.9308 59.5217 28.2291L46.3967 43.9934L46.35 44.0507C43.9467 46.9994 42.5 50.7397 42.5 54.8127C42.5 64.3011 50.34 71.9996 60 71.9996C69.66 71.9996 77.5 64.3011 77.5 54.8127C77.5 50.7397 76.0533 46.9994 73.6383 44.0507L73.6033 43.9934ZM49.535 46.2995L50.7017 44.8883L50.7367 45.1522C50.76 45.3587 50.795 45.5652 50.8417 45.7717C51.6 49.6841 54.3183 52.954 58.845 55.4781C62.7883 57.681 65.075 60.2166 65.74 63.0046C66.02 64.1634 66.0667 65.3107 65.95 66.3089L65.9383 66.3663L65.88 66.3892C64.1067 67.2382 62.1 67.7201 59.9883 67.7201C52.58 67.7201 46.5717 61.8228 46.5717 54.5488C46.5717 51.4281 47.68 48.5483 49.535 46.2995Z" fill="white"/>
</g>
</g>
<defs>
<filter id="filter0_bdi_1711_5467" x="-2.3556" y="-12.3556" width="124.711" height="137.067" filterUnits="userSpaceOnUse" color-interpolation-filters="sRGB">
<feFlood flood-opacity="0" result="BackgroundImageFix"/>
<feGaussianBlur in="BackgroundImageFix" stdDeviation="6.1778"/>
<feComposite in2="SourceAlpha" operator="in" result="effect1_backgroundBlur_1711_5467"/>
<feColorMatrix in="SourceAlpha" type="matrix" values="0 0 0 0 0 0 0 0 0 0 0 0 0 0 0 0 0 0 127 0" result="hardAlpha"/>
<feMorphology radius="1.23556" operator="dilate" in="SourceAlpha" result="effect2_dropShadow_1711_5467"/>
<feOffset dy="14.8267"/>
<feGaussianBlur stdDeviation="4.32446"/>
<feComposite in2="hardAlpha" operator="out"/>
<feColorMatrix type="matrix" values="0 0 0 0 0 0 0 0 0 0 0 0 0 0 0 0 0 0 0.3 0"/>
<feBlend mode="normal" in2="effect1_backgroundBlur_1711_5467" result="effect2_dropShadow_1711_5467"/>
<feBlend mode="normal" in="SourceGraphic" in2="effect2_dropShadow_1711_5467" result="shape"/>
<feColorMatrix in="SourceAlpha" type="matrix" values="0 0 0 0 0 0 0 0 0 0 0 0 0 0 0 0 0 0 127 0" result="hardAlpha"/>
<feMorphology radius="6.1778" operator="erode" in="SourceAlpha" result="effect3_innerShadow_1711_5467"/>
<feOffset dy="8.64892"/>
<feGaussianBlur stdDeviation="9.2667"/>
<feComposite in2="hardAlpha" operator="arithmetic" k2="-1" k3="1"/>
<feColorMatrix type="matrix" values="0 0 0 0 0 0 0 0 0 0 0 0 0 0 0 0 0 0 0.3 0"/>
<feBlend mode="normal" in2="shape" result="effect3_innerShadow_1711_5467"/>
</filter>
<radialGradient id="paint0_radial_1711_5467" cx="0" cy="0" r="1" gradientUnits="userSpaceOnUse" gradientTransform="translate(28.1081 82.1622) rotate(-39.4945) scale(95.6138)">
<stop/>
<stop offset="0.727209" stop-color="#0F0F0F"/>
<stop offset="1" stop-color="#515151"/>
</radialGradient>
<linearGradient id="paint1_linear_1711_5467" x1="88.3784" y1="1.62162" x2="67.5676" y2="45.6757" gradientUnits="userSpaceOnUse">
<stop stop-color="white"/>
<stop offset="1" stop-color="white" stop-opacity="0"/>
</linearGradient>
<clipPath id="clip0_1711_5467">
<rect width="35" height="44" fill="white" transform="translate(42.5 28)"/>
</clipPath>
</defs>
</svg>
